Coordinates
version=1
nRows=60
nColumns=12
inDegrees=yes

Units are S.I. units (second, meters, Newtons, ...)
Angles are in degrees

endheader
time	SC_y	SC_z	SC_x	AC_y	AC_z	AC_x	GH_y	GH_z	GH_yy	EL_x	PS_y
       0.0              -54.07          22.76          43.99          32.55          4.089           16.9          65.62          25.89          161.8          23.99          37.51
   0.03143              -54.07          22.76          43.99          32.55          4.088           16.9          65.59           25.9          161.8           24.0          37.53
   0.06286              -54.07          22.75          43.99          32.55          4.087          16.89          65.55          25.91          161.8           24.0          37.54
   0.09429              -54.07          22.75          43.98          32.55          4.085          16.89          65.51          25.91          161.7           24.0          37.56
    0.1257              -54.07          22.74          43.98          32.56          4.084          16.88          65.47          25.92          161.7          24.01          37.57
    0.1571              -54.07          22.74          43.98          32.56          4.083          16.87          65.43          25.94          161.7          24.01          37.59
    0.1886              -54.07          22.73          43.98          32.56          4.081          16.87          65.38          25.95          161.7          24.01          37.61
      0.22              -54.07          22.73          43.98          32.56           4.08          16.86          65.33          25.96          161.7          24.02          37.63
    0.2514              -54.07          22.72          43.98          32.57          4.078          16.85          65.28          25.97          161.7          24.02          37.65
    0.2829              -54.07          22.71          43.98          32.57          4.076          16.84          65.22          25.99          161.7          24.02          37.67
    0.3143              -54.07          22.71          43.98          32.58          4.074          16.83          65.16           26.0          161.6          24.03          37.69
    0.3457              -54.07           22.7          43.97          32.58          4.072          16.82           65.1          26.02          161.6          24.03          37.72
    0.3771              -54.07          22.69          43.97          32.59           4.07          16.81          65.02          26.03          161.6          24.04          37.75
    0.4086              -54.07          22.68          43.97          32.59          4.067           16.8          64.95          26.05          161.6          24.05          37.78
      0.44              -54.07          22.67          43.97           32.6          4.064          16.78          64.86          26.07          161.5          24.05          37.81
    0.4714              -54.07          22.66          43.97           32.6          4.061          16.77          64.77           26.1          161.5          24.06          37.85
    0.5029              -54.07          22.65          43.96          32.61          4.058          16.75          64.68          26.12          161.5          24.07          37.88
    0.5343              -54.07          22.64          43.96          32.62          4.055          16.74          64.57          26.15          161.5          24.07          37.93
    0.5657              -54.07          22.62          43.96          32.62          4.051          16.72          64.45          26.18          161.4          24.08          37.97
    0.5971              -54.07          22.61          43.96          32.63          4.047           16.7          64.32          26.21          161.4          24.09          38.02
    0.6286              -54.07          22.59          43.95          32.64          4.042          16.68          64.18          26.24          161.3           24.1          38.08
      0.66              -54.07          22.58          43.95          32.65          4.037          16.65          64.03          26.28          161.3          24.12          38.14
    0.6914              -54.07          22.56          43.94          32.66          4.032          16.63          63.86          26.32          161.2          24.13           38.2
    0.7229              -54.07          22.53          43.94          32.68          4.026           16.6          63.67          26.37          161.2          24.14          38.28
    0.7543              -54.07          22.51          43.93          32.69          4.019          16.56          63.46          26.42          161.1          24.16          38.36
    0.7857              -54.07          22.48          43.93           32.7          4.011          16.53          63.22          26.48          161.0          24.18          38.45
    0.8172              -54.07          22.45          43.92          32.72          4.003          16.48          62.96          26.54          161.0           24.2          38.55
    0.8486              -54.07          22.42          43.92          32.74          3.993          16.44          62.67          26.61          160.9          24.22          38.67
      0.88              -54.07          22.38          43.91          32.76          3.982          16.39          62.33          26.69          160.8          24.24           38.8
    0.9114              -54.07          22.34           43.9          32.79           3.97          16.33          61.95          26.79          160.7          24.27          38.95
    0.9429              -54.07          22.29          43.89          32.82          3.956          16.26          61.52          26.89          160.5           24.3          39.12
    0.9743              -54.07          22.23          43.88          32.85           3.94          16.18          61.02          27.02          160.4          24.34          39.31
     1.006              -54.07          22.16          43.86          32.89          3.921          16.09          60.45          27.16          160.2          24.38          39.54
     1.037              -54.07          22.09          43.85          32.93            3.9          15.98          59.78          27.32          160.0          24.44           39.8
     1.069              -54.07           22.0          43.83          32.98          3.875          15.86           59.0          27.51          159.8          24.49           40.1
       1.1              -54.07          21.89          43.81          33.05          3.845          15.72          58.08          27.74          159.5          24.56          40.46
     1.131              -54.07          21.77          43.78          33.12           3.81          15.54          56.99           28.0          159.2          24.65          40.89
     1.163              -54.07          21.61          43.75           33.2          3.767          15.34          55.68          28.32          158.8          24.74           41.4
     1.194              -54.07          21.43          43.71          33.31          3.716          15.09           54.1          28.71          158.3          24.86          42.02
     1.226              -54.07          21.21          43.66          33.44          3.653          14.78          52.16          29.19          157.7          25.01          42.77
     1.257              -54.07          20.93          43.61           33.6          3.576          14.41          49.77          29.77          157.0          25.19          43.71
     1.289              -54.07          20.59          43.53          33.79           3.48          13.94           46.8           30.5          156.1          25.41          44.87
      1.32              -54.08          20.16          43.44          34.04          3.358          13.35          43.04          31.42          154.9           25.7          46.34
     1.351              -54.08          19.61          43.33          34.36          3.204           12.6          38.27          32.59          153.5          26.06           48.2
     1.383              -54.08          18.91          43.18          34.76          3.006          11.63          32.17          34.09          151.6          26.52          50.59
     1.414              -54.08           18.0          42.99          35.28          2.752           10.4          24.33          36.01          149.3          27.11          53.65
     1.446              -54.09          16.85          42.75          35.94          2.429          8.824          14.33          38.46          146.2          27.86          57.56
     1.477              -54.09           15.4          42.45          36.78          2.021          6.842          1.744          41.55          142.4          28.81          62.47
     1.509               -54.1          13.64          42.08          37.79          1.525          4.427         -13.59          45.31          137.7          29.97          68.47
      1.54              -54.11          11.59          41.66          38.97         0.9496          1.628         -31.36          49.66          132.4          31.31          75.41
     1.571              -54.12          9.374          41.19          40.25         0.3266         -1.403         -50.61          54.38          126.5          32.76          82.93
     1.603              -54.12          7.158          40.73          41.52        -0.2963         -4.435         -69.86           59.1          120.7          34.21          90.45
     1.634              -54.13          5.111           40.3           42.7        -0.8716         -7.234         -87.63          63.45          115.3          35.55           97.4
     1.666              -54.14          3.346          39.94          43.71         -1.368         -9.649         -103.0          67.21          110.6           36.7          103.4
     1.697              -54.14          1.897          39.63          44.55         -1.775         -11.63         -115.5           70.3          106.8          37.65          108.3
     1.729              -54.15         0.7441          39.39          45.21         -2.099         -13.21         -125.6          72.75          103.8          38.41          112.2
      1.76              -54.15        -0.1581           39.2          45.73         -2.353         -14.44         -133.4          74.67          101.4           39.0          115.3
     1.791              -54.15        -0.8611          39.06          46.13          -2.55          -15.4         -139.5          76.17          99.55          39.46          117.7
     1.823              -54.16          -1.41          38.94          46.45         -2.705         -16.15         -144.3          77.34          98.11          39.82          119.5
     1.854              -54.16         -1.842          38.85           46.7         -2.826         -16.75         -148.0          78.26          96.97           40.1          121.0
